<svg width="220" height="25" viewBox="0 0 220 25" fill="none" xmlns="http://www.w3.org/2000/svg">
  <path
    d="M46.3835 9.25568C46.322 9.00473 46.2249 8.78456 46.0923 8.59517C45.9598 8.40104 45.794 8.23769 45.5952 8.10511C45.401 7.9678 45.1738 7.866 44.9134 7.79972C44.6577 7.72869 44.3759 7.69318 44.0682 7.69318C43.4053 7.69318 42.8395 7.8518 42.3707 8.16903C41.9067 8.48627 41.5516 8.94318 41.3054 9.53977C41.0639 10.1364 40.9432 10.8561 40.9432 11.6989C40.9432 12.5511 41.0592 13.2803 41.2912 13.8864C41.5232 14.4924 41.8688 14.9564 42.3281 15.2784C42.7874 15.6004 43.358 15.7614 44.0398 15.7614C44.6411 15.7614 45.1406 15.6738 45.5384 15.4986C45.9408 15.3234 46.2415 15.0748 46.4403 14.7528C46.6392 14.4309 46.7386 14.0521 46.7386 13.6165L47.4205 13.6875H44.0966V10.875H50.5455V12.892C50.5455 14.2178 50.2637 15.3518 49.7003 16.294C49.1416 17.2315 48.3698 17.9512 47.3849 18.4531C46.4048 18.9503 45.2803 19.1989 44.0114 19.1989C42.5956 19.1989 41.3527 18.8982 40.2827 18.2969C39.2126 17.6955 38.3769 16.8385 37.7756 15.7259C37.179 14.6132 36.8807 13.2898 36.8807 11.7557C36.8807 10.553 37.063 9.48769 37.4276 8.55966C37.7969 7.63163 38.3082 6.84801 38.9616 6.20881C39.6151 5.56487 40.3703 5.07955 41.2273 4.75284C42.0843 4.4214 43.0028 4.25568 43.983 4.25568C44.8447 4.25568 45.6449 4.37879 46.3835 4.625C47.1269 4.86648 47.7827 5.21212 48.3509 5.66193C48.9238 6.10701 49.3854 6.63494 49.7358 7.24574C50.0862 7.85653 50.2992 8.52651 50.375 9.25568H46.3835ZM56.3356 4.45455V19H52.3867V4.45455H56.3356ZM57.8093 7.63636V4.45455H70.4513V7.63636H66.0763V19H62.1843V7.63636H57.8093Z"
    fill="black"
  />

  <path
    d="M24.5257 11.3855L13.6103 0.470959C13.3186 0.180048 12.9159 0 12.4708 0C12.0257 0 11.6231 0.180048 11.3314 0.470959L9.06992 2.73656L11.9449 5.6115C12.1282 5.54731 12.3391 5.51064 12.5592 5.51064C13.617 5.51064 14.4739 6.36753 14.4739 7.42531C14.4739 7.64954 14.4355 7.86376 14.3647 8.06382L14.3688 8.05048L17.1379 10.8212C17.323 10.7554 17.5372 10.717 17.7597 10.717C18.8167 10.717 19.6736 11.5739 19.6736 12.6309C19.6736 13.6878 18.8167 14.5447 17.7597 14.5447C16.7028 14.5447 15.8459 13.6878 15.8459 12.6309C15.8459 12.37 15.8984 12.1216 15.9926 11.8948L15.9876 11.9073L13.3952 9.32832V16.1251C14.0321 16.4461 14.4614 17.0946 14.4614 17.8431C14.4614 18.9017 13.6028 19.7603 12.5442 19.7603C11.4856 19.7603 10.627 18.9017 10.627 17.8431C10.627 17.3146 10.8404 16.837 11.1863 16.4902C11.3622 16.3144 11.5714 16.1718 11.804 16.0718L11.8165 16.0668V9.20329C11.1146 8.90821 10.6312 8.22553 10.6312 7.43115C10.6312 7.16441 10.6854 6.91101 10.7837 6.68011L10.7787 6.69262L7.95379 3.85436L0.468458 11.3347C0.178381 11.6273 0 12.0299 0 12.475C0 12.9201 0.179214 13.3227 0.469292 13.6153L11.3855 24.5282C11.6764 24.82 12.0791 25 12.5242 25C12.9693 25 13.3711 24.82 13.6628 24.5282L24.5274 13.6636C24.8191 13.3727 25 12.9693 25 12.525C25 12.0807 24.8191 11.6773 24.5274 11.3864L24.5257 11.3855Z"
    fill="black"
  />
  
  <path
    d="M81.7614 19V4.45455H90.5398V6.01705H83.5227V10.9318H90.0852V12.4943H83.5227V17.4375H90.6534V19H81.7614ZM97.6065 19.2273C96.6974 19.2273 95.8949 18.9976 95.1989 18.5384C94.5028 18.0743 93.9583 17.4209 93.5653 16.5781C93.1723 15.7306 92.9759 14.7292 92.9759 13.5739C92.9759 12.428 93.1723 11.4337 93.5653 10.5909C93.9583 9.74811 94.5052 9.09706 95.206 8.63778C95.9067 8.1785 96.7164 7.94886 97.6349 7.94886C98.3452 7.94886 98.9063 8.06723 99.3182 8.30398C99.7348 8.53598 100.052 8.80114 100.27 9.09943C100.492 9.39299 100.665 9.63447 100.788 9.82386H100.93V4.45455H102.607V19H100.987V17.3239H100.788C100.665 17.5227 100.49 17.7737 100.263 18.0767C100.036 18.375 99.7112 18.6425 99.2898 18.8793C98.8684 19.1113 98.3073 19.2273 97.6065 19.2273ZM97.8338 17.7216C98.5062 17.7216 99.0743 17.5464 99.5384 17.196C100.002 16.8409 100.355 16.3509 100.597 15.7259C100.838 15.0961 100.959 14.3693 100.959 13.5455C100.959 12.7311 100.84 12.0185 100.604 11.4077C100.367 10.7921 100.017 10.3139 99.5526 9.97301C99.0885 9.62737 98.5156 9.45455 97.8338 9.45455C97.1236 9.45455 96.5317 9.63684 96.0582 10.0014C95.5895 10.3613 95.2367 10.8513 95 11.4716C94.768 12.0871 94.652 12.7784 94.652 13.5455C94.652 14.322 94.7704 15.0275 95.0071 15.6619C95.2486 16.2917 95.6037 16.7936 96.0724 17.1676C96.5459 17.5369 97.133 17.7216 97.8338 17.7216ZM105.909 19V8.09091H107.585V19H105.909ZM106.761 6.27273C106.435 6.27273 106.153 6.16146 105.916 5.93892C105.684 5.71638 105.568 5.44886 105.568 5.13636C105.568 4.82386 105.684 4.55634 105.916 4.33381C106.153 4.11127 106.435 4 106.761 4C107.088 4 107.367 4.11127 107.599 4.33381C107.836 4.55634 107.955 4.82386 107.955 5.13636C107.955 5.44886 107.836 5.71638 107.599 5.93892C107.367 6.16146 107.088 6.27273 106.761 6.27273ZM115.4 8.09091V9.51136H109.746V8.09091H115.4ZM111.394 5.47727H113.07V15.875C113.07 16.3485 113.139 16.7036 113.276 16.9403C113.418 17.1723 113.598 17.3286 113.816 17.4091C114.038 17.4848 114.273 17.5227 114.519 17.5227C114.703 17.5227 114.855 17.5133 114.973 17.4943C115.092 17.4706 115.186 17.4517 115.257 17.4375L115.598 18.9432C115.485 18.9858 115.326 19.0284 115.123 19.071C114.919 19.1184 114.661 19.142 114.348 19.142C113.875 19.142 113.411 19.0402 112.956 18.8366C112.507 18.633 112.132 18.3229 111.834 17.9062C111.541 17.4896 111.394 16.964 111.394 16.3295V5.47727ZM122.235 19.2273C121.251 19.2273 120.386 18.9929 119.643 18.5241C118.904 18.0554 118.327 17.3996 117.91 16.5568C117.498 15.714 117.292 14.7292 117.292 13.6023C117.292 12.4659 117.498 11.474 117.91 10.6264C118.327 9.77888 118.904 9.12074 119.643 8.65199C120.386 8.18324 121.251 7.94886 122.235 7.94886C123.22 7.94886 124.082 8.18324 124.821 8.65199C125.564 9.12074 126.142 9.77888 126.554 10.6264C126.97 11.474 127.179 12.4659 127.179 13.6023C127.179 14.7292 126.97 15.714 126.554 16.5568C126.142 17.3996 125.564 18.0554 124.821 18.5241C124.082 18.9929 123.22 19.2273 122.235 19.2273ZM122.235 17.7216C122.984 17.7216 123.599 17.5298 124.082 17.1463C124.565 16.7628 124.922 16.2585 125.154 15.6335C125.386 15.0085 125.502 14.3314 125.502 13.6023C125.502 12.8731 125.386 12.1937 125.154 11.5639C124.922 10.9342 124.565 10.4252 124.082 10.0369C123.599 9.64867 122.984 9.45455 122.235 9.45455C121.487 9.45455 120.872 9.64867 120.389 10.0369C119.906 10.4252 119.548 10.9342 119.316 11.5639C119.084 12.1937 118.968 12.8731 118.968 13.6023C118.968 14.3314 119.084 15.0085 119.316 15.6335C119.548 16.2585 119.906 16.7628 120.389 17.1463C120.872 17.5298 121.487 17.7216 122.235 17.7216ZM129.737 19V8.09091H131.357V9.73864H131.47C131.669 9.19886 132.029 8.76089 132.55 8.42472C133.071 8.08854 133.658 7.92045 134.311 7.92045C134.434 7.92045 134.588 7.92282 134.773 7.92756C134.957 7.93229 135.097 7.93939 135.192 7.94886V9.65341C135.135 9.6392 135.005 9.6179 134.801 9.58949C134.602 9.55634 134.392 9.53977 134.169 9.53977C133.639 9.53977 133.165 9.65104 132.749 9.87358C132.337 10.0914 132.01 10.3944 131.768 10.7827C131.532 11.1662 131.413 11.6042 131.413 12.0966V19H129.737ZM150.985 8.09091C150.9 7.37121 150.555 6.8125 149.949 6.41477C149.342 6.01705 148.599 5.81818 147.718 5.81818C147.074 5.81818 146.511 5.92235 146.028 6.13068C145.55 6.33901 145.176 6.62547 144.906 6.99006C144.641 7.35464 144.508 7.76894 144.508 8.23295C144.508 8.62121 144.6 8.95502 144.785 9.23438C144.975 9.509 145.216 9.73864 145.51 9.9233C145.803 10.1032 146.111 10.2524 146.433 10.3707C146.755 10.4844 147.051 10.5767 147.321 10.6477L148.798 11.0455C149.177 11.1449 149.598 11.2822 150.062 11.4574C150.531 11.6326 150.978 11.8717 151.404 12.1747C151.835 12.473 152.19 12.8565 152.47 13.3253C152.749 13.794 152.889 14.3693 152.889 15.0511C152.889 15.8371 152.683 16.5473 152.271 17.1818C151.864 17.8163 151.267 18.3205 150.481 18.6946C149.7 19.0687 148.751 19.2557 147.633 19.2557C146.592 19.2557 145.69 19.0876 144.927 18.7514C144.17 18.4152 143.573 17.9465 143.137 17.3452C142.707 16.7438 142.463 16.0455 142.406 15.25H144.224C144.271 15.7992 144.456 16.2538 144.778 16.6136C145.105 16.9687 145.517 17.2339 146.014 17.4091C146.516 17.5795 147.056 17.6648 147.633 17.6648C148.306 17.6648 148.909 17.5559 149.444 17.3381C149.979 17.1155 150.403 16.8078 150.716 16.4148C151.028 16.017 151.184 15.553 151.184 15.0227C151.184 14.5398 151.049 14.1468 150.779 13.8438C150.51 13.5407 150.154 13.2945 149.714 13.1051C149.274 12.9157 148.798 12.75 148.287 12.608L146.497 12.0966C145.36 11.7699 144.461 11.3035 143.798 10.6974C143.135 10.0914 142.804 9.2983 142.804 8.31818C142.804 7.50379 143.024 6.79356 143.464 6.1875C143.909 5.5767 144.506 5.10322 145.254 4.76705C146.007 4.42614 146.847 4.25568 147.775 4.25568C148.713 4.25568 149.546 4.42377 150.275 4.75994C151.004 5.09138 151.582 5.54593 152.008 6.12358C152.439 6.70123 152.666 7.35701 152.69 8.09091H150.985ZM160.131 19.2273C159.08 19.2273 158.174 18.9953 157.411 18.5312C156.654 18.0625 156.069 17.4091 155.657 16.571C155.25 15.7282 155.046 14.7481 155.046 13.6307C155.046 12.5133 155.25 11.5284 155.657 10.6761C156.069 9.81913 156.642 9.15152 157.376 8.6733C158.114 8.19034 158.976 7.94886 159.961 7.94886C160.529 7.94886 161.09 8.04356 161.644 8.23295C162.198 8.42235 162.702 8.73011 163.157 9.15625C163.612 9.57765 163.974 10.1364 164.244 10.8324C164.513 11.5284 164.648 12.3854 164.648 13.4034V14.1136H156.239V12.6648H162.944C162.944 12.0492 162.821 11.5 162.575 11.017C162.333 10.5341 161.987 10.1529 161.538 9.87358C161.093 9.59422 160.567 9.45455 159.961 9.45455C159.293 9.45455 158.716 9.62026 158.228 9.9517C157.745 10.2784 157.373 10.7045 157.113 11.2301C156.853 11.7557 156.722 12.3191 156.722 12.9205V13.8864C156.722 14.7102 156.864 15.4086 157.148 15.9815C157.437 16.5497 157.837 16.983 158.349 17.2812C158.86 17.5748 159.454 17.7216 160.131 17.7216C160.572 17.7216 160.969 17.66 161.325 17.5369C161.684 17.4091 161.995 17.2197 162.255 16.9688C162.515 16.7131 162.717 16.3958 162.859 16.017L164.478 16.4716C164.308 17.0208 164.021 17.5038 163.619 17.9205C163.216 18.3324 162.719 18.6544 162.127 18.8864C161.535 19.1136 160.87 19.2273 160.131 19.2273ZM168.874 4.45455V19H167.198V4.45455H168.874ZM176.518 19.2273C175.467 19.2273 174.56 18.9953 173.798 18.5312C173.04 18.0625 172.456 17.4091 172.044 16.571C171.636 15.7282 171.433 14.7481 171.433 13.6307C171.433 12.5133 171.636 11.5284 172.044 10.6761C172.456 9.81913 173.029 9.15152 173.762 8.6733C174.501 8.19034 175.363 7.94886 176.348 7.94886C176.916 7.94886 177.477 8.04356 178.031 8.23295C178.585 8.42235 179.089 8.73011 179.544 9.15625C179.998 9.57765 180.36 10.1364 180.63 10.8324C180.9 11.5284 181.035 12.3854 181.035 13.4034V14.1136H172.626V12.6648H179.331C179.331 12.0492 179.208 11.5 178.961 11.017C178.72 10.5341 178.374 10.1529 177.924 9.87358C177.479 9.59422 176.954 9.45455 176.348 9.45455C175.68 9.45455 175.102 9.62026 174.615 9.9517C174.132 10.2784 173.76 10.7045 173.5 11.2301C173.239 11.7557 173.109 12.3191 173.109 12.9205V13.8864C173.109 14.7102 173.251 15.4086 173.535 15.9815C173.824 16.5497 174.224 16.983 174.735 17.2812C175.247 17.5748 175.841 17.7216 176.518 17.7216C176.958 17.7216 177.356 17.66 177.711 17.5369C178.071 17.4091 178.381 17.2197 178.642 16.9688C178.902 16.7131 179.103 16.3958 179.245 16.017L180.865 16.4716C180.694 17.0208 180.408 17.5038 180.005 17.9205C179.603 18.3324 179.106 18.6544 178.514 18.8864C177.922 19.1136 177.257 19.2273 176.518 19.2273ZM188.017 19.2273C186.994 19.2273 186.113 18.9858 185.375 18.5028C184.636 18.0199 184.068 17.3546 183.67 16.5071C183.272 15.6596 183.074 14.6913 183.074 13.6023C183.074 12.4943 183.277 11.5166 183.684 10.669C184.096 9.81676 184.669 9.15152 185.403 8.6733C186.142 8.19034 187.003 7.94886 187.988 7.94886C188.755 7.94886 189.447 8.09091 190.062 8.375C190.678 8.65909 191.182 9.05682 191.575 9.56818C191.968 10.0795 192.212 10.6761 192.306 11.358H190.63C190.502 10.8608 190.218 10.4205 189.778 10.0369C189.342 9.64867 188.755 9.45455 188.017 9.45455C187.363 9.45455 186.79 9.625 186.298 9.96591C185.81 10.3021 185.429 10.7779 185.154 11.3935C184.885 12.0043 184.75 12.7216 184.75 13.5455C184.75 14.3883 184.882 15.1222 185.147 15.7472C185.417 16.3722 185.796 16.8575 186.284 17.2031C186.776 17.5488 187.354 17.7216 188.017 17.7216C188.452 17.7216 188.848 17.6458 189.203 17.4943C189.558 17.3428 189.859 17.125 190.105 16.8409C190.351 16.5568 190.526 16.2159 190.63 15.8182H192.306C192.212 16.4621 191.977 17.0421 191.603 17.5582C191.234 18.0696 190.744 18.4768 190.133 18.7798C189.527 19.0781 188.822 19.2273 188.017 19.2273ZM199.501 8.09091V9.51136H193.848V8.09091H199.501ZM195.495 5.47727H197.172V15.875C197.172 16.3485 197.24 16.7036 197.377 16.9403C197.52 17.1723 197.699 17.3286 197.917 17.4091C198.14 17.4848 198.374 17.5227 198.62 17.5227C198.805 17.5227 198.957 17.5133 199.075 17.4943C199.193 17.4706 199.288 17.4517 199.359 17.4375L199.7 18.9432C199.586 18.9858 199.428 19.0284 199.224 19.071C199.02 19.1184 198.762 19.142 198.45 19.142C197.976 19.142 197.512 19.0402 197.058 18.8366C196.608 18.633 196.234 18.3229 195.936 17.9062C195.642 17.4896 195.495 16.964 195.495 16.3295V5.47727ZM206.337 19.2273C205.352 19.2273 204.488 18.9929 203.745 18.5241C203.006 18.0554 202.428 17.3996 202.012 16.5568C201.6 15.714 201.394 14.7292 201.394 13.6023C201.394 12.4659 201.6 11.474 202.012 10.6264C202.428 9.77888 203.006 9.12074 203.745 8.65199C204.488 8.18324 205.352 7.94886 206.337 7.94886C207.322 7.94886 208.184 8.18324 208.922 8.65199C209.666 9.12074 210.243 9.77888 210.655 10.6264C211.072 11.474 211.28 12.4659 211.28 13.6023C211.28 14.7292 211.072 15.714 210.655 16.5568C210.243 17.3996 209.666 18.0554 208.922 18.5241C208.184 18.9929 207.322 19.2273 206.337 19.2273ZM206.337 17.7216C207.085 17.7216 207.701 17.5298 208.184 17.1463C208.667 16.7628 209.024 16.2585 209.256 15.6335C209.488 15.0085 209.604 14.3314 209.604 13.6023C209.604 12.8731 209.488 12.1937 209.256 11.5639C209.024 10.9342 208.667 10.4252 208.184 10.0369C207.701 9.64867 207.085 9.45455 206.337 9.45455C205.589 9.45455 204.973 9.64867 204.49 10.0369C204.007 10.4252 203.65 10.9342 203.418 11.5639C203.186 12.1937 203.07 12.8731 203.07 13.6023C203.07 14.3314 203.186 15.0085 203.418 15.6335C203.65 16.2585 204.007 16.7628 204.49 17.1463C204.973 17.5298 205.589 17.7216 206.337 17.7216ZM213.839 19V8.09091H215.458V9.73864H215.572C215.771 9.19886 216.13 8.76089 216.651 8.42472C217.172 8.08854 217.759 7.92045 218.413 7.92045C218.536 7.92045 218.69 7.92282 218.874 7.92756C219.059 7.93229 219.199 7.93939 219.293 7.94886V9.65341C219.237 9.6392 219.106 9.6179 218.903 9.58949C218.704 9.55634 218.493 9.53977 218.271 9.53977C217.74 9.53977 217.267 9.65104 216.85 9.87358C216.438 10.0914 216.112 10.3944 215.87 10.7827C215.633 11.1662 215.515 11.6042 215.515 12.0966V19H213.839Z"
    fill="#9A9A9A"
  />
</svg>
